<svg xmlns="http://www.w3.org/2000/svg" xmlns:xlink="http://www.w3.org/1999/xlink" width="224" zoomAndPan="magnify" viewBox="0 0 168 44.999999" height="60" preserveAspectRatio="xMidYMid meet" version="1.0"><defs><filter x="0%" y="0%" width="100%" height="100%" id="dbbdc70f70"><feColorMatrix values="0 0 0 0 1 0 0 0 0 1 0 0 0 0 1 0 0 0 1 0" color-interpolation-filters="sRGB"/></filter><g/><mask id="a6e6e788e2"><g filter="url(#dbbdc70f70)"><rect x="-16.8" width="201.6" fill="#000000" y="-4.5" height="53.999999" fill-opacity="0.99"/></g></mask><clipPath id="85353b4bb7"><path d="M 0.121094 0.640625 L 127.078125 0.640625 L 127.078125 37.601562 L 0.121094 37.601562 Z M 0.121094 0.640625 " clip-rule="nonzero"/></clipPath><clipPath id="8eb48b3d03"><rect x="0" width="128" y="0" height="38"/></clipPath><clipPath id="f4960bf81f"><rect x="0" width="128" y="0" height="38"/></clipPath></defs><g mask="url(#a6e6e788e2)"><g transform="matrix(1, 0, 0, 1, 9, 2)"><g clip-path="url(#f4960bf81f)"><g clip-path="url(#85353b4bb7)"><g><g clip-path="url(#8eb48b3d03)"><g fill="#fcfcfc" fill-opacity="1"><g transform="translate(0.183986, 27.488422)"><g><path d="M 6.234375 0 L 2.46875 0 L 2.46875 -19.046875 L 6.234375 -19.046875 Z M 6.234375 0 "/></g></g><g transform="translate(8.913273, 27.488422)"><g><path d="M 2.078125 0 L 2.078125 -14.375 L 5.53125 -14.375 L 5.53125 -12.265625 L 5.8125 -12.203125 C 6.707031 -13.828125 8.160156 -14.640625 10.171875 -14.640625 C 11.828125 -14.640625 13.039062 -14.1875 13.8125 -13.28125 C 14.59375 -12.382812 14.984375 -11.070312 14.984375 -9.34375 L 14.984375 0 L 11.375 0 L 11.375 -8.90625 C 11.375 -9.851562 11.179688 -10.535156 10.796875 -10.953125 C 10.421875 -11.378906 9.8125 -11.59375 8.96875 -11.59375 C 7.9375 -11.59375 7.128906 -11.257812 6.546875 -10.59375 C 5.972656 -9.925781 5.6875 -8.875 5.6875 -7.4375 L 5.6875 0 Z M 2.078125 0 "/></g></g><g transform="translate(25.746465, 27.488422)"><g><path d="M 6.71875 0.28125 C 5.738281 0.28125 4.835938 0.164062 4.015625 -0.0625 C 3.203125 -0.300781 2.503906 -0.617188 1.921875 -1.015625 C 1.347656 -1.421875 0.925781 -1.882812 0.65625 -2.40625 L 2.65625 -4.578125 L 2.9375 -4.578125 C 3.414062 -3.929688 3.976562 -3.445312 4.625 -3.125 C 5.28125 -2.800781 5.988281 -2.640625 6.75 -2.640625 C 7.457031 -2.640625 7.988281 -2.765625 8.34375 -3.015625 C 8.695312 -3.273438 8.875 -3.640625 8.875 -4.109375 C 8.875 -4.472656 8.742188 -4.773438 8.484375 -5.015625 C 8.234375 -5.265625 7.820312 -5.460938 7.25 -5.609375 L 5.34375 -6.0625 C 3.914062 -6.394531 2.875 -6.910156 2.21875 -7.609375 C 1.5625 -8.316406 1.234375 -9.207031 1.234375 -10.28125 C 1.234375 -11.175781 1.460938 -11.953125 1.921875 -12.609375 C 2.378906 -13.273438 3.019531 -13.78125 3.84375 -14.125 C 4.675781 -14.46875 5.644531 -14.640625 6.75 -14.640625 C 8.039062 -14.640625 9.113281 -14.453125 9.96875 -14.078125 C 10.820312 -13.710938 11.488281 -13.21875 11.96875 -12.59375 L 10.03125 -10.5 L 9.765625 -10.5 C 9.367188 -10.957031 8.921875 -11.289062 8.421875 -11.5 C 7.921875 -11.707031 7.363281 -11.8125 6.75 -11.8125 C 5.320312 -11.8125 4.609375 -11.367188 4.609375 -10.484375 C 4.609375 -10.109375 4.738281 -9.800781 5 -9.5625 C 5.269531 -9.332031 5.738281 -9.140625 6.40625 -8.984375 L 8.1875 -8.59375 C 9.644531 -8.28125 10.707031 -7.78125 11.375 -7.09375 C 12.050781 -6.40625 12.390625 -5.476562 12.390625 -4.3125 C 12.390625 -3.394531 12.160156 -2.585938 11.703125 -1.890625 C 11.253906 -1.203125 10.601562 -0.664062 9.75 -0.28125 C 8.90625 0.09375 7.894531 0.28125 6.71875 0.28125 Z M 6.71875 0.28125 "/></g></g><g transform="translate(38.996741, 27.488422)"><g><path d="M 3.875 -16.09375 C 3.21875 -16.09375 2.6875 -16.289062 2.28125 -16.6875 C 1.875 -17.082031 1.671875 -17.59375 1.671875 -18.21875 C 1.671875 -18.832031 1.875 -19.335938 2.28125 -19.734375 C 2.6875 -20.128906 3.21875 -20.328125 3.875 -20.328125 C 4.300781 -20.328125 4.679688 -20.234375 5.015625 -20.046875 C 5.359375 -19.867188 5.625 -19.617188 5.8125 -19.296875 C 6 -18.984375 6.09375 -18.625 6.09375 -18.21875 C 6.09375 -17.8125 6 -17.445312 5.8125 -17.125 C 5.625 -16.800781 5.359375 -16.546875 5.015625 -16.359375 C 4.679688 -16.179688 4.300781 -16.09375 3.875 -16.09375 Z M 2.078125 0 L 2.078125 -14.375 L 5.6875 -14.375 L 5.6875 0 Z M 2.078125 0 "/></g></g><g transform="translate(46.73584, 27.488422)"><g><path d="M 7.109375 0.28125 C 5.960938 0.28125 4.953125 0.00390625 4.078125 -0.546875 C 3.210938 -1.097656 2.53125 -1.929688 2.03125 -3.046875 C 1.539062 -4.171875 1.296875 -5.550781 1.296875 -7.1875 C 1.296875 -8.820312 1.546875 -10.195312 2.046875 -11.3125 C 2.554688 -12.425781 3.257812 -13.257812 4.15625 -13.8125 C 5.0625 -14.363281 6.101562 -14.640625 7.28125 -14.640625 C 8.175781 -14.640625 8.953125 -14.484375 9.609375 -14.171875 C 10.265625 -13.867188 10.816406 -13.394531 11.265625 -12.75 L 11.546875 -12.8125 L 11.546875 -20.140625 L 15.15625 -20.140625 L 15.15625 0 L 11.546875 0 L 11.546875 -1.859375 L 11.265625 -1.921875 C 10.867188 -1.242188 10.320312 -0.707031 9.625 -0.3125 C 8.9375 0.0820312 8.097656 0.28125 7.109375 0.28125 Z M 8.28125 -2.78125 C 9.289062 -2.78125 10.09375 -3.144531 10.6875 -3.875 C 11.28125 -4.601562 11.578125 -5.707031 11.578125 -7.1875 C 11.578125 -8.65625 11.28125 -9.753906 10.6875 -10.484375 C 10.09375 -11.210938 9.289062 -11.578125 8.28125 -11.578125 C 7.21875 -11.578125 6.40625 -11.222656 5.84375 -10.515625 C 5.28125 -9.804688 5 -8.695312 5 -7.1875 C 5 -5.664062 5.28125 -4.550781 5.84375 -3.84375 C 6.40625 -3.132812 7.21875 -2.78125 8.28125 -2.78125 Z M 8.28125 -2.78125 "/></g></g><g transform="translate(63.959896, 27.488422)"><g><path d="M 14.203125 -6.375 L 4.96875 -6.375 C 5.070312 -5.125 5.425781 -4.210938 6.03125 -3.640625 C 6.644531 -3.066406 7.472656 -2.78125 8.515625 -2.78125 C 9.347656 -2.78125 10.019531 -2.9375 10.53125 -3.25 C 11.039062 -3.5625 11.453125 -4.03125 11.765625 -4.65625 L 12.046875 -4.65625 L 14.4375 -3.109375 C 13.96875 -2.109375 13.257812 -1.289062 12.3125 -0.65625 C 11.363281 -0.03125 10.097656 0.28125 8.515625 0.28125 C 7.035156 0.28125 5.753906 0 4.671875 -0.5625 C 3.585938 -1.132812 2.753906 -1.976562 2.171875 -3.09375 C 1.585938 -4.207031 1.296875 -5.570312 1.296875 -7.1875 C 1.296875 -8.8125 1.601562 -10.179688 2.21875 -11.296875 C 2.832031 -12.421875 3.664062 -13.257812 4.71875 -13.8125 C 5.769531 -14.363281 6.953125 -14.640625 8.265625 -14.640625 C 10.296875 -14.640625 11.851562 -14.101562 12.9375 -13.03125 C 14.019531 -11.957031 14.5625 -10.375 14.5625 -8.28125 C 14.5625 -7.53125 14.535156 -6.945312 14.484375 -6.53125 Z M 11.109375 -8.703125 C 11.066406 -9.796875 10.804688 -10.59375 10.328125 -11.09375 C 9.859375 -11.59375 9.171875 -11.84375 8.265625 -11.84375 C 6.441406 -11.84375 5.367188 -10.796875 5.046875 -8.703125 Z M 11.109375 -8.703125 "/></g></g><g transform="translate(79.581411, 27.488422)"><g><path d="M 15.265625 -19.046875 L 15.265625 -15.890625 L 9.765625 -15.890625 L 9.765625 0 L 6.015625 0 L 6.015625 -15.890625 L 0.515625 -15.890625 L 0.515625 -19.046875 Z M 15.265625 -19.046875 "/></g></g></g><g fill="#fcfcfc" fill-opacity="1"><g transform="translate(93.522212, 27.488422)"><g><path d="M 14.203125 -6.375 L 4.96875 -6.375 C 5.070312 -5.125 5.425781 -4.210938 6.03125 -3.640625 C 6.644531 -3.066406 7.472656 -2.78125 8.515625 -2.78125 C 9.347656 -2.78125 10.019531 -2.9375 10.53125 -3.25 C 11.039062 -3.5625 11.453125 -4.03125 11.765625 -4.65625 L 12.046875 -4.65625 L 14.4375 -3.109375 C 13.96875 -2.109375 13.257812 -1.289062 12.3125 -0.65625 C 11.363281 -0.03125 10.097656 0.28125 8.515625 0.28125 C 7.035156 0.28125 5.753906 0 4.671875 -0.5625 C 3.585938 -1.132812 2.753906 -1.976562 2.171875 -3.09375 C 1.585938 -4.207031 1.296875 -5.570312 1.296875 -7.1875 C 1.296875 -8.8125 1.601562 -10.179688 2.21875 -11.296875 C 2.832031 -12.421875 3.664062 -13.257812 4.71875 -13.8125 C 5.769531 -14.363281 6.953125 -14.640625 8.265625 -14.640625 C 10.296875 -14.640625 11.851562 -14.101562 12.9375 -13.03125 C 14.019531 -11.957031 14.5625 -10.375 14.5625 -8.28125 C 14.5625 -7.53125 14.535156 -6.945312 14.484375 -6.53125 Z M 11.109375 -8.703125 C 11.066406 -9.796875 10.804688 -10.59375 10.328125 -11.09375 C 9.859375 -11.59375 9.171875 -11.84375 8.265625 -11.84375 C 6.441406 -11.84375 5.367188 -10.796875 5.046875 -8.703125 Z M 11.109375 -8.703125 "/></g></g><g transform="translate(109.143728, 27.488422)"><g><path d="M 8.375 0.28125 C 6.988281 0.28125 5.757812 -0.00390625 4.6875 -0.578125 C 3.625 -1.160156 2.789062 -2.015625 2.1875 -3.140625 C 1.59375 -4.265625 1.296875 -5.613281 1.296875 -7.1875 C 1.296875 -8.757812 1.59375 -10.101562 2.1875 -11.21875 C 2.789062 -12.34375 3.617188 -13.191406 4.671875 -13.765625 C 5.734375 -14.347656 6.945312 -14.640625 8.3125 -14.640625 C 11.34375 -14.640625 13.285156 -13.539062 14.140625 -11.34375 L 11.65625 -9.578125 L 11.390625 -9.578125 C 11.097656 -10.253906 10.710938 -10.753906 10.234375 -11.078125 C 9.765625 -11.410156 9.125 -11.578125 8.3125 -11.578125 C 7.269531 -11.578125 6.457031 -11.21875 5.875 -10.5 C 5.289062 -9.78125 5 -8.675781 5 -7.1875 C 5 -5.707031 5.296875 -4.601562 5.890625 -3.875 C 6.484375 -3.144531 7.3125 -2.78125 8.375 -2.78125 C 9.15625 -2.78125 9.816406 -2.988281 10.359375 -3.40625 C 10.910156 -3.832031 11.300781 -4.441406 11.53125 -5.234375 L 11.8125 -5.265625 L 14.375 -3.859375 C 14.007812 -2.640625 13.332031 -1.644531 12.34375 -0.875 C 11.363281 -0.101562 10.039062 0.28125 8.375 0.28125 Z M 8.375 0.28125 "/></g></g></g></g></g></g></g></g></g></svg>